<?xml version="1.0" encoding="UTF-8" standalone="no"?>
<!-- Created with Inkscape (http://www.inkscape.org/) -->

<svg
   width="512"
   height="512"
   viewBox="0 0 135.46666 135.46667"
   version="1.1"
   id="svg1"
   inkscape:version="1.3 (1:1.3+202307231459+0e150ed6c4)"
   sodipodi:docname="logo-square.svg"
   xmlns:inkscape="http://www.inkscape.org/namespaces/inkscape"
   xmlns:sodipodi="http://sodipodi.sourceforge.net/DTD/sodipodi-0.dtd"
   xmlns="http://www.w3.org/2000/svg"
   xmlns:svg="http://www.w3.org/2000/svg">
  <sodipodi:namedview
     id="namedview1"
     pagecolor="#ffffff"
     bordercolor="#000000"
     borderopacity="0.25"
     inkscape:showpageshadow="2"
     inkscape:pageopacity="0.0"
     inkscape:pagecheckerboard="0"
     inkscape:deskcolor="#d1d1d1"
     inkscape:document-units="mm"
     inkscape:zoom="0.686785"
     inkscape:cx="43.681792"
     inkscape:cy="112.1166"
     inkscape:window-width="1920"
     inkscape:window-height="962"
     inkscape:window-x="0"
     inkscape:window-y="0"
     inkscape:window-maximized="1"
     inkscape:current-layer="layer1" />
  <defs
     id="defs1" />
  <g
     inkscape:label="Layer 1"
     inkscape:groupmode="layer"
     id="layer1">
    <g
       id="SvgjsG2061"
       featurekey="symbolFeature-0"
       transform="matrix(1.3340151,0,0,1.3340151,0.92400269,0.72717762)"
       fill="#4c5d6d"
       style="stroke-width:0.227949">
      <path
         d="m 14.736,80.683 c 1.199,0 2.398,-0.457 3.311,-1.369 l 6.636,-6.636 0.453,0.453 c 0.766,0.766 1.771,1.147 2.777,1.147 1.006,0 2.012,-0.382 2.777,-1.147 L 72.709,31.112 c 1.53,-1.531 1.53,-4.023 0,-5.555 l -0.453,-0.453 6.623,-6.623 c 1.825,-1.825 1.825,-4.795 0,-6.621 -1.827,-1.827 -4.798,-1.823 -6.621,0 l -6.623,6.623 -0.453,-0.453 c -1.482,-1.484 -4.069,-1.484 -5.554,0 L 17.609,60.049 c -0.742,0.742 -1.15,1.729 -1.15,2.777 0,1.048 0.408,2.035 1.15,2.776 l 0.453,0.453 -6.636,6.636 c -1.824,1.826 -1.824,4.796 0,6.622 0.913,0.914 2.112,1.37 3.31,1.37 z M 73.672,13.274 c 1.044,-1.044 2.745,-1.046 3.793,0 1.045,1.046 1.045,2.748 0,3.793 L 70.842,23.69 67.049,19.897 Z M 19.023,61.463 61.042,19.444 c 0.364,-0.364 0.849,-0.564 1.363,-0.564 0.514,0 0.998,0.2 1.362,0.564 l 7.527,7.526 c 0.751,0.752 0.751,1.975 0,2.727 L 29.276,71.716 c -0.752,0.75 -1.975,0.75 -2.727,0 l -7.526,-7.527 c -0.364,-0.364 -0.564,-0.848 -0.564,-1.362 0,-0.514 0.2,-1 0.564,-1.364 z m -6.183,12.642 6.636,-6.636 3.793,3.794 -6.636,6.636 c -1.044,1.044 -2.745,1.046 -3.793,0 -1.045,-1.045 -1.045,-2.748 0,-3.794 z"
         id="path1"
         style="stroke-width:0.227949" />
      <path
         d="m 40.5,10.497 c -2.275,-0.696 -4.803,-0.036 -7.125,1.852 -2.11,1.715 -3.804,4.284 -4.646,7.047 -1.021,3.35 -1.015,6.237 0.021,8.586 0.962,2.185 2.756,3.73 5.187,4.471 0.846,0.259 1.695,0.386 2.53,0.386 1.52,0 2.989,-0.423 4.288,-1.254 2.141,-1.369 3.797,-3.812 4.787,-7.062 0.839,-2.75 0.82,-5.847 -0.049,-8.497 -0.929,-2.831 -2.749,-4.845 -4.993,-5.529 z m 3.13,13.441 c -0.852,2.791 -2.218,4.853 -3.953,5.962 -1.532,0.98 -3.316,1.203 -5.157,0.64 -1.856,-0.565 -3.219,-1.729 -3.939,-3.364 -0.824,-1.87 -0.803,-4.358 0.062,-7.195 h 10e-4 c 0.729,-2.393 2.185,-4.608 3.994,-6.079 1.353,-1.1 2.755,-1.67 4.057,-1.67 0.42,0 0.829,0.059 1.224,0.18 1.613,0.491 2.953,2.036 3.676,4.238 0.742,2.266 0.756,4.923 0.035,7.288 z"
         id="path2"
         style="stroke-width:0.227949" />
      <path
         d="m 15.621,46.301 c 1.27,0.786 2.665,1.184 4.125,1.183 0.875,0 1.773,-0.142 2.682,-0.428 2.377,-0.749 4.2,-2.372 5.132,-4.571 0.992,-2.34 0.977,-5.291 -0.044,-8.533 -1.911,-6.069 -7.559,-10.146 -12.091,-8.717 -3.99,1.258 -6.821,7.182 -4.676,13.996 1.052,3.339 2.69,5.718 4.872,7.07 z m 0.405,-19.158 c 0.404,-0.128 0.828,-0.188 1.262,-0.188 3.195,0 6.968,3.305 8.319,7.599 0.876,2.782 0.915,5.255 0.111,7.151 -0.71,1.675 -2.056,2.865 -3.893,3.443 -1.849,0.585 -3.633,0.395 -5.151,-0.547 -1.738,-1.076 -3.127,-3.141 -4.018,-5.97 0,-10e-4 0,-10e-4 0,-10e-4 -1.562,-4.964 0.043,-10.44 3.37,-11.487 z"
         id="path3"
         style="stroke-width:0.227949" />
      <path
         d="m 75.486,90.14 c 0.41,0.06 0.83,0.089 1.257,0.089 2.189,0 4.578,-0.781 6.986,-2.295 5.387,-3.386 7.896,-9.883 5.368,-13.903 -1.265,-2.012 -3.608,-3.171 -6.599,-3.265 -2.721,-0.08 -5.68,0.749 -8.126,2.287 -2.964,1.863 -4.85,4.052 -5.604,6.505 -0.702,2.281 -0.358,4.624 0.994,6.775 1.328,2.11 3.361,3.462 5.724,3.807 z m -4.805,-9.994 c 0.602,-1.954 2.246,-3.821 4.757,-5.399 2.021,-1.271 4.435,-1.986 6.677,-1.986 0.107,0 0.215,0.002 0.322,0.005 2.305,0.072 4.068,0.899 4.968,2.33 1.892,3.009 -0.412,8.426 -4.739,11.146 -2.47,1.554 -4.856,2.217 -6.891,1.92 C 73.975,87.9 72.482,86.9 71.458,85.27 70.424,83.625 70.155,81.854 70.681,80.146 Z"
         id="path4"
         style="stroke-width:0.227949" />
      <path
         d="m 68.433,38.801 c -5.025,5.025 -6.58,11.906 -4.161,16.642 l -29.28,26.682 c -1.056,0.976 -1.677,2.321 -1.704,3.693 -0.023,1.218 0.418,2.344 1.243,3.169 0.804,0.804 1.893,1.244 3.074,1.244 0.032,0 0.063,-10e-4 0.095,-10e-4 1.34,-0.026 2.655,-0.62 3.624,-1.631 0.027,-0.023 0.053,-0.049 0.077,-0.075 L 68.032,59.299 c 1.509,0.813 3.242,1.22 5.075,1.22 3.924,0 8.282,-1.822 11.752,-5.292 5.915,-5.915 7.043,-14.412 2.515,-18.94 C 82.847,31.76 74.35,32.888 68.433,38.801 Z m 11.208,11.226 c -2.564,2.564 -5.335,4.595 -7.801,5.717 -2.071,0.941 -3.758,1.128 -4.405,0.481 -0.646,-0.646 -0.462,-2.334 0.48,-4.405 1.122,-2.466 3.152,-5.236 5.717,-7.801 4.549,-4.549 8.81,-6.582 10.984,-6.582 0.551,0 0.968,0.131 1.222,0.384 1.254,1.254 -0.497,6.505 -6.197,12.206 z m -9.794,-9.812 c 3.089,-3.089 6.936,-4.728 10.326,-4.728 0.813,0 1.598,0.097 2.341,0.288 -3.195,0.922 -7.105,3.639 -10.296,6.83 -2.729,2.729 -4.904,5.708 -6.123,8.387 -0.299,0.657 -0.522,1.278 -0.692,1.87 -0.977,-3.843 0.62,-8.824 4.444,-12.647 z M 39.983,87.108 c -0.021,0.02 -0.041,0.039 -0.06,0.06 -0.608,0.658 -1.434,1.045 -2.264,1.062 -0.694,-0.011 -1.278,-0.222 -1.716,-0.657 -0.437,-0.438 -0.671,-1.047 -0.657,-1.716 0.017,-0.83 0.403,-1.655 1.057,-2.259 L 65.385,57.134 c 0.172,0.206 0.34,0.415 0.532,0.608 0.145,0.145 0.302,0.274 0.455,0.407 z M 83.444,53.812 c -3.823,3.823 -8.804,5.421 -12.648,4.443 0.593,-0.17 1.214,-0.392 1.872,-0.691 2.679,-1.219 5.657,-3.394 8.387,-6.123 3.191,-3.192 5.907,-7.102 6.829,-10.297 0.988,3.847 -0.61,8.838 -4.44,12.668 z"
         id="path5"
         style="stroke-width:0.227949" />
    </g>
  </g>
</svg>
