<?xml version="1.0" standalone="no"?>
<!DOCTYPE svg PUBLIC "-//W3C//DTD SVG 20010904//EN"
 "http://www.w3.org/TR/2001/REC-SVG-20010904/DTD/svg10.dtd">
<svg version="1.0" xmlns="http://www.w3.org/2000/svg"
 width="700.000000pt" height="700.000000pt" viewBox="0 0 700.000000 700.000000"
 preserveAspectRatio="xMidYMid meet">
<metadata>
Created by potrace 1.14, written by Peter Selinger 2001-2017
</metadata>
<g transform="translate(0.000000,700.000000) scale(0.100000,-0.100000)"
fill="#000000" stroke="none">
<path d="M2615 6245 c-115 -25 -226 -90 -329 -192 -261 -258 -379 -700 -266
-992 64 -163 177 -268 360 -333 79 -29 247 -33 328 -9 228 69 393 264 483 571
27 90 34 156 33 295 -3 436 -276 732 -609 660z m235 -161 c95 -52 172 -164
216 -314 14 -50 18 -98 18 -210 1 -172 -17 -248 -93 -405 -116 -238 -296 -346
-516 -310 -113 19 -256 120 -304 213 -86 169 -69 424 44 659 150 309 437 475
635 367z"/>
<path d="M5185 6231 c-85 -23 -114 -46 -360 -292 l-251 -249 -34 31 c-82 74
-205 94 -304 51 -40 -18 -303 -276 -1527 -1501 -1145 -1145 -1484 -1489 -1498
-1522 -47 -106 -33 -210 40 -293 l42 -47 -250 -252 c-138 -139 -257 -265 -266
-282 -25 -52 -39 -132 -33 -187 22 -175 169 -295 349 -284 103 6 142 35 412
305 l243 244 34 -32 c54 -51 112 -74 187 -75 128 -2 25 -97 1647 1526 1050
1051 1479 1486 1495 1518 17 34 23 62 23 115 0 79 -21 136 -73 195 l-31 35
254 255 c286 288 291 296 291 430 0 129 -67 234 -184 288 -58 27 -153 37 -206
23z m142 -146 c50 -21 72 -42 94 -90 22 -48 24 -104 4 -150 -8 -22 -109 -130
-254 -276 l-239 -240 -132 131 -131 131 241 240 c132 132 255 246 273 254 42
19 99 19 144 0z m-924 -436 c31 -16 565 -549 583 -581 18 -34 18 -82 0 -116
-8 -15 -675 -687 -1483 -1494 -1188 -1186 -1474 -1467 -1501 -1473 -72 -15
-82 -7 -374 284 -153 152 -285 290 -293 307 -8 18 -13 47 -11 65 2 19 4 38 5
44 2 15 2921 2934 2956 2956 34 21 85 25 118 8z m-2814 -3535 l64 -63 -241
-240 c-247 -248 -277 -271 -349 -271 -44 0 -110 28 -135 56 -49 56 -61 145
-27 208 12 22 127 145 256 274 l235 234 66 -68 c37 -37 96 -96 131 -130z"/>
<path d="M1194 5239 c-231 -29 -388 -217 -449 -534 -6 -35 -6 -204 0 -255 31
-237 148 -479 296 -613 143 -130 325 -175 511 -128 391 100 539 466 382 941
-25 76 -100 220 -141 271 -176 222 -404 343 -599 318z m116 -144 c161 -24 373
-215 464 -417 24 -54 43 -112 67 -203 14 -52 19 -235 8 -295 -39 -215 -238
-363 -471 -347 -200 13 -355 166 -448 445 -38 114 -40 128 -47 253 -6 116 10
224 48 325 27 72 99 167 151 201 42 27 139 54 168 48 8 -2 35 -7 60 -10z"/>
<path d="M5390 4635 c-418 -91 -789 -422 -931 -831 -74 -214 -74 -452 1 -620
l18 -43 -85 -78 c-48 -43 -96 -87 -107 -98 -12 -11 -64 -58 -116 -105 -52 -47
-99 -90 -105 -96 -5 -5 -57 -53 -115 -105 -57 -52 -116 -105 -131 -119 -26
-25 -175 -160 -212 -192 -10 -9 -60 -55 -111 -102 -50 -46 -100 -93 -112 -103
-12 -10 -63 -56 -114 -103 -51 -47 -102 -93 -114 -103 -11 -10 -63 -57 -115
-105 -51 -48 -99 -92 -105 -97 -32 -29 -243 -221 -252 -230 -6 -5 -48 -44 -94
-85 -177 -161 -199 -186 -228 -275 -15 -43 -20 -78 -17 -124 17 -276 350 -373
555 -162 19 20 73 79 120 131 47 52 92 101 100 110 8 8 103 112 210 230 107
118 204 224 215 236 11 11 56 61 100 109 44 49 91 100 103 114 71 78 204 223
252 276 30 33 73 80 95 104 22 25 47 52 55 61 8 9 56 61 105 116 50 54 101
111 115 125 14 15 57 62 95 105 39 43 95 105 126 139 31 33 76 82 101 109 l45
50 64 -28 c100 -42 179 -55 314 -51 510 14 1009 446 1125 974 28 127 22 329
-14 433 -72 213 -220 356 -436 423 -74 24 -310 29 -400 10z m323 -135 c19 -8
20 -9 3 -9 -30 -1 -224 -99 -316 -160 -247 -163 -509 -422 -678 -674 -54 -80
-152 -272 -152 -299 0 -9 -4 -19 -9 -23 -6 -3 -13 22 -17 57 -52 438 308 934
791 1088 102 33 318 44 378 20z m231 -131 c72 -33 56 -184 -40 -371 -37 -71
-140 -229 -186 -285 -113 -135 -258 -279 -393 -389 -194 -157 -450 -275 -569
-261 -63 7 -86 44 -81 127 12 189 183 468 450 735 130 130 162 158 275 240
102 73 135 93 220 136 137 68 264 95 324 68z m172 -295 c33 -200 -37 -454
-184 -664 -62 -88 -222 -245 -307 -301 -85 -56 -191 -110 -261 -133 -51 -17
-59 -19 -149 -37 -56 -11 -215 -10 -254 1 -24 7 -25 8 -6 15 140 50 277 127
418 234 314 238 603 590 705 858 15 39 28 70 29 69 1 -1 5 -20 9 -42z m-1504
-1129 c-6 -10 -106 -121 -224 -248 -15 -16 -58 -63 -95 -104 -37 -42 -79 -88
-93 -103 -69 -75 -197 -215 -213 -234 -15 -17 -69 -76 -192 -210 -5 -6 -53
-58 -105 -116 -52 -58 -99 -110 -105 -116 -19 -20 -180 -197 -203 -223 -13
-14 -63 -68 -110 -120 -48 -52 -95 -103 -105 -115 -10 -12 -37 -41 -60 -66
-23 -25 -87 -95 -142 -155 -177 -195 -189 -207 -236 -230 -152 -78 -302 63
-229 217 21 45 41 66 185 198 39 35 93 84 120 109 28 25 100 91 160 146 61 55
112 102 115 105 3 3 30 27 60 54 30 27 80 72 110 100 30 28 102 94 160 146 58
52 128 116 155 141 117 107 196 179 285 261 52 47 107 97 121 110 14 12 65 59
114 103 48 44 100 91 115 105 15 14 67 61 115 105 49 44 102 94 120 110 17 17
51 47 74 68 l43 39 34 -33 c19 -19 30 -37 26 -44z"/>
<path d="M5657 2084 c-1 -1 -27 -4 -57 -7 -218 -22 -458 -142 -629 -315 -95
-96 -151 -183 -182 -282 -86 -276 74 -597 346 -699 74 -28 107 -34 190 -35
144 -1 261 30 410 107 454 236 660 756 419 1054 -67 82 -201 151 -327 169 -49
7 -165 12 -170 8z m210 -159 c238 -68 314 -286 193 -550 -130 -284 -461 -502
-744 -490 -78 3 -99 8 -161 39 -77 38 -142 97 -182 164 -116 197 -84 397 94
576 149 150 360 255 558 278 64 8 186 -1 242 -17z"/>
</g>
</svg>
